<svg id="visual" viewBox="0 0 1440 1080" width="1440" height="1080" xmlns="http://www.w3.org/2000/svg" xmlns:xlink="http://www.w3.org/1999/xlink" version="1.1"><rect x="0" y="0" width="1440" height="1080" fill="#002233"></rect><path d="M0 263L26.7 252.8C53.3 242.7 106.7 222.3 160 212.7C213.3 203 266.7 204 320 208.2C373.3 212.3 426.7 219.7 480 217.2C533.3 214.7 586.7 202.3 640 188.3C693.3 174.3 746.7 158.7 800 161.7C853.3 164.7 906.7 186.3 960 188.7C1013.3 191 1066.7 174 1120 170.8C1173.3 167.7 1226.7 178.3 1280 189.8C1333.3 201.3 1386.7 213.7 1413.3 219.8L1440 226L1440 0L1413.3 0C1386.7 0 1333.3 0 1280 0C1226.7 0 1173.3 0 1120 0C1066.7 0 1013.3 0 960 0C906.7 0 853.3 0 800 0C746.7 0 693.3 0 640 0C586.7 0 533.3 0 480 0C426.7 0 373.3 0 320 0C266.7 0 213.3 0 160 0C106.7 0 53.3 0 26.7 0L0 0Z" fill="#0066FF" stroke-linecap="round" stroke-linejoin="miter"></path></svg>